# xmcd
#
# Track frame offsets: 
#        150
#        19045
#        37891
#        53079
#        75972
#        89371
#        103965
#        116740
#        130343
#        149539
#
# Disc length: 2206 seconds
#
# Revision: 1
# Processed by: cddbd v1.5.2PL0 Copyright (c) Steve Scherf et al.
# Submitted via: ExactAudioCopy v1.0b3
#
DISCID=7f089c0a
DTITLE=Little Wolf and The Hellcats - The Blues Got Soul
DYEAR=2006
DGENRE=Blues
TTITLE0=Big Legged Woman
TTITLE1=Louise
TTITLE2=Mess Around
TTITLE3=You're Breaking My Heart
TTITLE4=Smokestack Lightning
TTITLE5=Woke Up This Morning
TTITLE6=Sitting On Top Of The World
TTITLE7=The Color Of The Rose
TTITLE8=Every Day I Have The Blues
TTITLE9=Big Boss Man
EXTD=
EXTT0=
EXTT1=
EXTT2=
EXTT3=
EXTT4=
EXTT5=
EXTT6=
EXTT7=
EXTT8=
EXTT9=
PLAYORDER=
